<svg xmlns="http://www.w3.org/2000/svg" width="24" height="24" viewBox="0 0 24 24"><g transform="translate(-.5 0)"><path d="M3 2Q13 5 11 12q-1 5-8 8 5-5 5-9T3 2z" fill="#85938f" stroke="#29272a" stroke-width="0.6" stroke-linejoin="round" stroke-linecap="round"/><path d="M3 2Q13 5 11 12q-1 5-8 8 6-3 7-9Q11 6 3 2z" fill="#d0d4bf" stroke="#29272a" stroke-width="0.6" stroke-linejoin="round" stroke-linecap="round"/><path d="M7 7h2v7H7z" fill="#4b4038" stroke="#29272a" stroke-width="0.6" stroke-linejoin="round" stroke-linecap="round"/><path d="M7.3 8.5h1.4m-1.4 2h1.4m-1.4 2h1.4" fill="none" stroke="#b6a781" stroke-width="0.65" stroke-linejoin="round" stroke-linecap="round"/><path d="M6 6l4 1-.2 1-3.8-1zM6 14l4-1v1l-4 1z" fill="#959578" stroke="#29272a" stroke-width="0.6" stroke-linejoin="round" stroke-linecap="round"/><circle cx="9.8" cy="10.5" r="0.85" fill="#697665" stroke="#29272a" stroke-width=".4"/></g><g transform="translate(24 2) scale(-1 1)"><path d="M3 2Q13 5 11 12q-1 5-8 8 5-5 5-9T3 2z" fill="#85938f" stroke="#29272a" stroke-width="0.6" stroke-linejoin="round" stroke-linecap="round"/><path d="M3 2Q13 5 11 12q-1 5-8 8 6-3 7-9Q11 6 3 2z" fill="#d0d4bf" stroke="#29272a" stroke-width="0.6" stroke-linejoin="round" stroke-linecap="round"/><path d="M7 7h2v7H7z" fill="#4b4038" stroke="#29272a" stroke-width="0.6" stroke-linejoin="round" stroke-linecap="round"/><path d="M7.3 8.5h1.4m-1.4 2h1.4m-1.4 2h1.4" fill="none" stroke="#b6a781" stroke-width="0.65" stroke-linejoin="round" stroke-linecap="round"/><path d="M6 6l4 1-.2 1-3.8-1zM6 14l4-1v1l-4 1z" fill="#959578" stroke="#29272a" stroke-width="0.6" stroke-linejoin="round" stroke-linecap="round"/><circle cx="9.8" cy="10.5" r="0.85" fill="#697665" stroke="#29272a" stroke-width=".4"/></g></svg>
