<svg xmlns="http://www.w3.org/2000/svg" width="24" height="24" viewBox="0 0 24 24">
<defs><pattern id="mail" width="2" height="2" patternUnits="userSpaceOnUse"><path d="M0 .5q1 2 2 0" fill="none" stroke="#a2aaac" stroke-width=".5"/></pattern></defs>
<g stroke="#303239" stroke-width=".65" stroke-linejoin="round">
<path d="m8 3 4 2 4-2 4 3 3 7-4 2-2-4 1 11H6l1-11-2 4-4-2 3-7Z" fill="#51585c"/>
<path d="m8 3 4 2 4-2 4 3 3 7-4 2-2-4 1 11H6l1-11-2 4-4-2 3-7Z" fill="url(#mail)" stroke="none"/>
<path d="m8 4 4 2 4-2 2 5-2 7-4 2-4-2-2-7Z" fill="#9caeb5"/>
<path d="m12 6 4-2 2 5-2 7-4 2Z" fill="#71858e"/>
<path d="m8 6-1 3 2 5m3-7v9m-3-1 3 1 3-1" fill="none" stroke="#e1e8df"/>
<path d="M8 17h8v2H8Z" fill="#785a40"/><path d="M11 17h2v2h-2Z" fill="#c8b17f"/>
</g></svg>
