<svg xmlns="http://www.w3.org/2000/svg" width="24" height="24" viewBox="0 0 24 24"><path d="M5 19 16 7l1 1L6 21z" fill="#7a6c55" stroke="#29272a" stroke-width="0.6" stroke-linejoin="round" stroke-linecap="round"/><path d="M7 18l8-9" fill="none" stroke="#b7ab8d" stroke-width="0.7" stroke-linejoin="round" stroke-linecap="round"/><path d="M3 19l2-2 4 3-2 3z" fill="#756b59" stroke="#29272a" stroke-width="0.6" stroke-linejoin="round" stroke-linecap="round"/><path d="M4 19l3 2M5 18l3 2" fill="none" stroke="#bbb097" stroke-width="0.8" stroke-linejoin="round" stroke-linecap="round"/><path d="M13 5l1-3 2 1 2-2 1 2 3 1-1 2 2 2-2 1-1 3-2-1-2 1-1-2-3-1 1-2z" fill="#76766c" stroke="#29272a" stroke-width="0.6" stroke-linejoin="round" stroke-linecap="round"/><path d="M15 4l3-1 3 3-1 3-3 1-3-3z" fill="#a5a597" stroke="#29272a" stroke-width="0.6" stroke-linejoin="round" stroke-linecap="round"/><path d="M15 4l3-1 1 2-3 2-2-1z" fill="#d0cdbc" stroke="#29272a" stroke-width="0.6" stroke-linejoin="round" stroke-linecap="round"/><path d="M18 7l3-1-1 3-3 1z" fill="#666d65" stroke="#29272a" stroke-width="0.6" stroke-linejoin="round" stroke-linecap="round"/><path d="M14 10l2 1M13 11l2 1" fill="none" stroke="#aaa58f" stroke-width="0.85" stroke-linejoin="round" stroke-linecap="round"/></svg>
